<svg version="1.1" xmlns="http://www.w3.org/2000/svg" viewBox="0 0 579.1917241574758 450.63290265636334" width="579.1917241574758" height="450.63290265636334">
  <!-- svg-source:excalidraw -->
  
  <defs>
    <style class="style-fonts">
      @font-face {
        font-family: "Virgil";
        src: url("https://excalidraw.com/Virgil.woff2");
      }
      @font-face {
        font-family: "Cascadia";
        src: url("https://excalidraw.com/Cascadia.woff2");
      }
    </style>
  </defs>
  <g stroke-linecap="round"><g transform="translate(53.42966836184161 23.076409560600325) rotate(0 -0.6406544502033 197.13902508161496)"><path d="M-0.06 -0.29 C0.09 65.72, 0.22 329.72, 0.27 395.76 M-1.55 -1.48 C-1.48 64.19, -0.73 328.02, -0.54 393.94" stroke="#000000" stroke-width="1" fill="none"></path></g></g><mask></mask><g stroke-linecap="round"><g transform="translate(511.82966225832587 25.67641566411595) rotate(0 -0.23556938262959193 197.02018139003778)"><path d="M-0.98 -0.35 C-0.99 65.48, -0.13 328.57, -0.15 394.47 M0.71 -1.58 C0.54 64.44, -1.27 329.31, -1.18 395.62" stroke="#000000" stroke-width="1" fill="none"></path></g></g><mask></mask><g stroke-linecap="round"><g transform="translate(30.629680568872857 397.7632835118565) rotate(0 252.53030958324672 0.0637270332779849)"><path d="M-0.79 -0.15 C83.59 -0.36, 421.58 -0.07, 505.85 -0.09 M0.99 -1.28 C85.34 -0.77, 421.59 1.03, 505.44 1.41" stroke="#000000" stroke-width="1" fill="none"></path></g></g><mask></mask><g stroke-linecap="round"><g transform="translate(52.416580072938416 347.7632835118565) rotate(0 228.61517172255088 -0.009069273029467695)"><path d="M0.02 0.33 C76.35 0.61, 382.44 0.82, 458.67 0.83 M-1.44 -0.55 C74.78 -0.52, 381.95 -0.65, 458.28 -0.85" stroke="#000000" stroke-width="1" fill="none"></path></g></g><mask></mask><g stroke-linecap="round"><g transform="translate(28.84385629312345 226.07165355970966) rotate(89.99999999999994 179.10473999444272 0.42335301430441064)"><path d="M-0.04 -0.92 C59.75 -0.87, 299.84 0.09, 359.73 0.13 M-1.52 1.21 C58.06 1.49, 298.97 1.9, 358.97 1.73" stroke="#000000" stroke-width="1" fill="none"></path></g></g><mask></mask><g stroke-linecap="round"><g transform="translate(55.416580072938416 245.7632835118565) rotate(0 227.87477955148088 -0.38865744173526195)"><path d="M0.97 0.17 C77.06 -0.16, 379.8 -0.82, 455.72 -0.94 M0.03 -0.79 C75.98 -0.47, 378.55 -0.11, 454.53 0.1" stroke="#000000" stroke-width="1" fill="none"></path></g></g><mask></mask><g stroke-linecap="round"><g transform="translate(-24.564060003116936 226.66020249856876) rotate(89.99999999999994 179.85850659686793 0.17017692735842616)"><path d="M-0.01 0.18 C60.14 0.4, 300.95 1.29, 361.2 1.09 M-1.48 -0.77 C58.56 -0.84, 300.16 -0.54, 360.61 -0.46" stroke="#000000" stroke-width="1" fill="none"></path></g></g><mask></mask><g stroke-linecap="round"><g transform="translate(128.27699213339287 225.9048398346804) rotate(89.99999999999994 181.01343699658085 0.480494405022057)"><path d="M-0.92 0.36 C59.6 0.36, 302.45 0.13, 362.95 -0.06 M0.79 -0.49 C61.18 -0.29, 301.43 1.34, 362.07 1.45" stroke="#000000" stroke-width="1" fill="none"></path></g></g><mask></mask><g stroke-linecap="round"><g transform="translate(53.416580072938416 146.7632835118565) rotate(0 228.79188968241215 0.22357081769965248)"><path d="M-0.44 0.16 C76 0.27, 381.66 -0.11, 458.02 -0.19 M1.53 -0.8 C77.85 -0.43, 381.12 0.98, 456.98 1.25" stroke="#000000" stroke-width="1" fill="none"></path></g></g><mask></mask><g stroke-linecap="round"><g transform="translate(226.81893575625128 229.25804902850035) rotate(89.99999999999994 181.04861134566704 -0.20179265485126052)"><path d="M0.36 0.13 C60.87 0.16, 302.68 -0.66, 363 -0.72 M-0.91 -0.85 C59.44 -0.59, 301.07 0.13, 362.03 0.45" stroke="#000000" stroke-width="1" fill="none"></path></g></g><mask></mask><g stroke-linecap="round"><g transform="translate(54.416580072938416 295.7632835118565) rotate(0 227.18292019173967 0.4336443030740895)"><path d="M0.71 0.17 C76.33 0.09, 379.07 0.27, 454.74 0.08 M-0.38 -0.78 C74.99 -0.7, 378.04 1.55, 453.76 1.65" stroke="#000000" stroke-width="1" fill="none"></path></g></g><mask></mask><g stroke-linecap="round"><g transform="translate(-77.05056430137432 226.23885525837358) rotate(89.99999999999994 182.4910912294154 0.024096593069572236)"><path d="M0.69 1.09 C61.59 0.89, 304.7 -1.05, 365.39 -1.04 M-0.41 0.62 C60.42 0.51, 304.17 0.16, 364.95 -0.05" stroke="#000000" stroke-width="1" fill="none"></path></g></g><mask></mask><g stroke-linecap="round"><g transform="translate(79.74371350023489 228.6100850951671) rotate(89.99999999999994 179.59558354050435 -0.3720054704615734)"><path d="M0.13 -0.06 C59.97 -0.24, 298.36 -0.58, 358.12 -0.75 M-1.26 -1.13 C59.05 -1.21, 300.61 0.26, 360.45 0.39" stroke="#000000" stroke-width="1" fill="none"></path></g></g><mask></mask><g stroke-linecap="round"><g transform="translate(57.416580072938416 193.7632835118565) rotate(0 226.33369309783913 -0.9022965255724387)"><path d="M0.17 -0.48 C75.28 -0.59, 376.34 0.26, 451.66 0.31 M-1.21 -1.77 C74.19 -2.35, 378.51 -2.12, 453.87 -1.65" stroke="#000000" stroke-width="1" fill="none"></path></g></g><mask></mask><g stroke-linecap="round"><g transform="translate(178.42713538888626 227.55930832417067) rotate(89.99999999999994 181.67658670426107 0.41424904147473285)"><path d="M-0.06 -0.72 C60.31 -0.77, 302.2 -0.34, 362.58 -0.17 M-1.54 1.52 C59.18 1.65, 303.88 1.23, 364.9 1.27" stroke="#000000" stroke-width="1" fill="none"></path></g></g><mask></mask><g stroke-linecap="round"><g transform="translate(55.416580072938416 94.76328351185651) rotate(0 228.59775446691086 -0.25027628646230937)"><path d="M0.16 -0.18 C76.7 -0.18, 382.06 -0.38, 458.41 -0.47 M-1.22 -1.32 C75.23 -1.12, 380.94 0.56, 457.36 0.82" stroke="#000000" stroke-width="1" fill="none"></path></g></g><mask></mask><g stroke-linecap="round"><g transform="translate(279.1757122498313 225.7997526648927) rotate(89.99999999999994 180.60746974679836 0.17961432502718822)"><path d="M-0.72 -0.75 C59.59 -0.93, 301.41 -1.11, 361.93 -1.11 M1.11 1.47 C61.23 1.4, 300.78 0.05, 360.89 -0.15" stroke="#000000" stroke-width="1" fill="none"></path></g></g><mask></mask><g stroke-linecap="round"><g transform="translate(52.416580072938416 44.763283511856514) rotate(0 230.5536581456754 0.31234989895484944)"><path d="M0.89 0.11 C77.23 0.24, 382.53 0.12, 459.02 -0.02 M-0.11 -0.88 C76.52 -0.48, 384.71 1.33, 461.22 1.51" stroke="#000000" stroke-width="1" fill="none"></path></g></g><mask></mask><g stroke-linecap="round"><g transform="translate(54.579273700294266 339.14940857742187) rotate(269.03738899775624 -0.5902215029651927 7.781926686903489)"><path d="M0.27 0.51 C0.29 3.01, -0.34 12.31, -0.3 14.61 M-1.05 -0.27 C-1.17 2.42, -1.58 13.27, -1.4 15.84" stroke="#000000" stroke-width="1" fill="none"></path></g></g><mask></mask><g stroke-linecap="round"><g transform="translate(514.5792737002942 340.14940857742187) rotate(269.03738899775624 0.25814765573477416 8.17549607767728)"><path d="M-0.28 1.08 C-0.42 3.48, -0.09 12.4, -0.2 14.55 M1.78 0.6 C1.41 3.14, -1.2 13.4, -1.26 15.75" stroke="#000000" stroke-width="1" fill="none"></path></g></g><mask></mask><g stroke-linecap="round"><g transform="translate(54.579273700294266 287.14940857742187) rotate(269.03738899775624 0.26630221487025096 8.35422010435721)"><path d="M0.3 0.67 C0.12 3.29, -0.77 12.65, -0.77 15.2 M-1.01 -0.03 C-0.82 2.84, 1.42 14.4, 1.54 16.74" stroke="#000000" stroke-width="1" fill="none"></path></g></g><mask></mask><g stroke-linecap="round"><g transform="translate(514.5792737002942 290.14940857742187) rotate(269.03738899775624 0.5398084023641445 6.949331392040477)"><path d="M1.08 -0.2 C0.95 2.21, -0.27 11.78, -0.65 14.23 M0.19 -1.36 C0.44 1.21, 1.58 12.46, 1.73 15.25" stroke="#000000" stroke-width="1" fill="none"></path></g></g><mask></mask><g stroke-linecap="round"><g transform="translate(53.579273700294266 237.14940857742187) rotate(269.03738899775624 0.03976384998298954 7.288459792733192)"><path d="M-0.47 -1.06 C-0.65 1.43, -0.34 12.84, -0.3 15.63 M1.48 1 C1.05 3.05, -0.98 11.64, -1.4 13.74" stroke="#000000" stroke-width="1" fill="none"></path></g></g><mask></mask><g stroke-linecap="round"><g transform="translate(513.5792737002942 238.14940857742187) rotate(269.03738899775624 -0.27017746089956063 7.136291469777916)"><path d="M-0.2 -0.65 C-0.32 1.51, -0.89 11.41, -0.97 14.01 M-1.77 1.63 C-1.49 4.4, 0.64 12.5, 1.23 14.92" stroke="#000000" stroke-width="1" fill="none"></path></g></g><mask></mask><g stroke-linecap="round"><g transform="translate(54.579273700294266 186.14940857742187) rotate(269.03738899775624 0.7142704630087167 7.5361174514843015)"><path d="M1.14 0.35 C1.41 3, 0.96 13.08, 0.76 15.58 M0.28 -0.51 C0.54 1.8, 0.4 10.78, 0.2 13.65" stroke="#000000" stroke-width="1" fill="none"></path></g></g><mask></mask><g stroke-linecap="round"><g transform="translate(514.5792737002942 186.14940857742187) rotate(269.03738899775624 0.005769122707704355 7.332482725749713)"><path d="M-0.65 -0.97 C-1.02 1.47, -1.26 11.62, -1.19 14.48 M1.21 1.13 C1.09 3.74, 1.29 13.43, 0.89 15.64" stroke="#000000" stroke-width="1" fill="none"></path></g></g><mask></mask><g stroke-linecap="round"><g transform="translate(55.579273700294266 138.14940857742187) rotate(269.03738899775624 -0.04861263215835265 7.377178263803955)"><path d="M0.6 -0.2 C0.47 2.1, 0.37 12.39, 0.17 14.79 M-0.55 -1.35 C-0.89 1.04, -0.5 13.39, -0.69 16.11" stroke="#000000" stroke-width="1" fill="none"></path></g></g><mask></mask><g stroke-linecap="round"><g transform="translate(515.5792737002942 139.14940857742187) rotate(269.03738899775624 0.29660208826805956 7.5805997399939145)"><path d="M-0.97 -1.19 C-1.06 1.41, -1.05 12.34, -0.72 14.95 M0.72 0.8 C1.04 3.63, 1.61 13.92, 1.61 16.35" stroke="#000000" stroke-width="1" fill="none"></path></g></g><mask></mask><g stroke-linecap="round"><g transform="translate(54.579273700294266 87.14940857742187) rotate(269.03738899775624 0.748965479634137 7.537581719453442)"><path d="M1.1 0.13 C1.44 2.68, 1.19 13.37, 1.03 15.92 M0.23 -0.84 C0.58 1.3, 0.75 11.23, 0.63 14.17" stroke="#000000" stroke-width="1" fill="none"></path></g></g><mask></mask><g stroke-linecap="round"><g transform="translate(514.5792737002942 87.14940857742187) rotate(269.03738899775624 -0.484246279171316 7.736972364783298)"><path d="M-1.19 -0.72 C-1.13 2.14, -0.33 13.46, -0.25 16.2 M0.38 1.51 C0.32 4.14, -1.56 12.58, -1.33 14.6" stroke="#000000" stroke-width="1" fill="none"></path></g></g><mask></mask><g stroke-linecap="round"><g transform="translate(53.09595730265522 35.3747961003873) rotate(269.03738899775624 -0.274309892353898 8.753974596252661)"><path d="M0.13 1.03 C0.14 3.41, 0.71 13.06, 0.72 15.36 M-1.25 0.53 C-1.4 3.64, 0.01 14.41, 0.14 16.98" stroke="#000000" stroke-width="1" fill="none"></path></g></g><mask></mask><g stroke-linecap="round"><g transform="translate(513.0959573026553 37.3747961003873) rotate(269.03738899775624 0.1446996495409394 7.297870433772914)"><path d="M-0.66 -0.95 C-0.9 1.28, -1.21 11.61, -0.92 14.42 M1.19 1.16 C1.28 4.05, 1.36 13.42, 1.32 15.55" stroke="#000000" stroke-width="1" fill="none"></path></g></g><mask></mask><g stroke-linecap="round"><g transform="translate(51.76488802882983 41.23210472305337) rotate(0 0.8183075612114123 -15.25040425211239)"><path d="M-0.4 -0.27 C-0.07 -5.49, 1.54 -25.56, 2.04 -30.23 M1.59 -1.46 C1.71 -6.06, 0.8 -24.48, 0.85 -29.28" stroke="#000000" stroke-width="1" fill="none"></path></g><g transform="translate(51.76488802882983 41.23210472305337) rotate(0 0.8183075612114123 -15.25040425211239)"><path d="M5.83 -16.22 C3.06 -19.74, 3.76 -24.41, 0.45 -29.11 M6.61 -15.72 C4.38 -20.27, 1.99 -24.56, 0.62 -29.54" stroke="#000000" stroke-width="1" fill="none"></path></g><g transform="translate(51.76488802882983 41.23210472305337) rotate(0 0.8183075612114123 -15.25040425211239)"><path d="M-4.17 -15.99 C-3.88 -19.55, -0.12 -24.29, 0.45 -29.11 M-3.38 -15.49 C-2.13 -20.12, -1.04 -24.49, 0.62 -29.54" stroke="#000000" stroke-width="1" fill="none"></path></g></g><mask></mask><g stroke-linecap="round"><g transform="translate(512.4296378442634 41.47638819829564) rotate(0 -0.050397353224070685 -15.206500692525893)"><path d="M-0.91 -1.02 C-0.93 -5.82, -0.19 -24.65, 0.13 -29.63 M0.81 1.06 C0.63 -4.03, -0.75 -26.31, -0.76 -31.48" stroke="#000000" stroke-width="1" fill="none"></path></g><g transform="translate(512.4296378442634 41.47638819829564) rotate(0 -0.050397353224070685 -15.206500692525893)"><path d="M3.64 -17.35 C3.86 -20.76, 0.48 -27.19, -0.67 -30.6 M5.25 -17.07 C2.94 -21.71, 0.79 -26.06, -0.49 -31.68" stroke="#000000" stroke-width="1" fill="none"></path></g><g transform="translate(512.4296378442634 41.47638819829564) rotate(0 -0.050397353224070685 -15.206500692525893)"><path d="M-6.67 -16.97 C-3.15 -20.42, -3.25 -26.98, -0.67 -30.6 M-5.06 -16.69 C-4.27 -21.46, -3.31 -25.93, -0.49 -31.68" stroke="#000000" stroke-width="1" fill="none"></path></g></g><mask></mask><g stroke-linecap="round"><g transform="translate(532.102683096195 398.43070455011383) rotate(0 11.158135074088364 0.3580817398617455)"><path d="M0.94 -0.75 C4.34 -0.48, 16.99 1.05, 20.16 1.19 M-0.02 1.47 C3.76 1.47, 18.62 -0.31, 22.34 -0.31" stroke="#000000" stroke-width="1" fill="none"></path></g><g transform="translate(532.102683096195 398.43070455011383) rotate(0 11.158135074088364 0.3580817398617455)"><path d="M11.98 3.07 C16.44 1.64, 18.2 0.99, 21.56 0.47 M12.51 4.41 C15.76 2.86, 19.95 1.14, 22.69 -0.42" stroke="#000000" stroke-width="1" fill="none"></path></g><g transform="translate(532.102683096195 398.43070455011383) rotate(0 11.158135074088364 0.3580817398617455)"><path d="M11.5 -4.16 C16.06 -3.56, 17.96 -2.17, 21.56 0.47 M12.03 -2.82 C15.38 -1.84, 19.75 -1.03, 22.69 -0.42" stroke="#000000" stroke-width="1" fill="none"></path></g></g><mask></mask><g transform="translate(272.2269490079821 394.63290265636334) rotate(0 11.5 23)"><text x="0" y="32" font-family="Virgil, Segoe UI Emoji" font-size="36px" fill="#000000" text-anchor="start" style="white-space: pre;" direction="ltr">X</text></g><g transform="translate(10 194.72600629106813) rotate(0 14.5 23)"><text x="0" y="32" font-family="Virgil, Segoe UI Emoji" font-size="36px" fill="#000000" text-anchor="start" style="white-space: pre;" direction="ltr">Y1</text></g><g transform="translate(524.1917241574758 197.1363202944712) rotate(0 22.5 23)"><text x="0" y="32" font-family="Virgil, Segoe UI Emoji" font-size="36px" fill="#000000" text-anchor="start" style="white-space: pre;" direction="ltr">Y2</text></g></svg>